<svg fill="#909090" t="1632899144543" class="icon" viewBox="0 0 1024 1024" version="1.1" xmlns="http://www.w3.org/2000/svg" p-id="16900" width="90" height="90"><path d="M757.76 30.72l-512 0C197.973333 30.72 160.426667 68.266667 160.426667 116.053333l0 791.893333c0 47.786667 37.546667 88.746667 88.746667 88.746667l215.04 0L580.266667 996.693333l177.493333 0c47.786667 0 88.746667-37.546667 88.746667-88.746667L846.506667 116.053333C846.506667 68.266667 808.96 30.72 757.76 30.72zM419.84 92.16l170.666667 0c6.826667 0 13.653333 6.826667 13.653333 13.653333s-6.826667 13.653333-13.653333 13.653333l-170.666667 0c-6.826667 0-13.653333-6.826667-13.653333-13.653333S409.6 92.16 419.84 92.16zM501.76 928.426667c-34.133333 0-61.44-27.306667-61.44-61.44 0-34.133333 27.306667-61.44 61.44-61.44s61.44 27.306667 61.44 61.44C563.2 901.12 535.893333 928.426667 501.76 928.426667z" p-id="16901"></path></svg>